# xmcd CD database file
#
# Track frame offsets:
#	150
#	13281
#	30115
#	46165
#	63378
#	80663
#	96902
#	115499
#	136839
#	158311
#
# Disc length: 2351 seconds
#
# Revision: 1
# Processed by: cddbd v1.5.2PL0 Copyright (c) Steve Scherf et al.
# Submitted via: CDex 2.02
#
DISCID=73092d0a
DTITLE=Trent Severn - Trillium
DYEAR=2015
DGENRE=Country
TTITLE0=Stealin Syrup
TTITLE1=Take Me Back
TTITLE2=Nil Visibility
TTITLE3=King of the Background
TTITLE4=Whistle Wail
TTITLE5=North Star
TTITLE6=O Snow
TTITLE7=Goodbye Sadness
TTITLE8=Haliburton High
TTITLE9=From Canada
EXTD=YEAR: 2015
EXTT0=
EXTT1=
EXTT2=
EXTT3=
EXTT4=
EXTT5=
EXTT6=
EXTT7=
EXTT8=
EXTT9=
PLAYORDER=
